<svg xmlns="http://www.w3.org/2000/svg"><symbol id="velociraptor" viewBox="0 0 256 256"><path d="M127.7 0a127.7 127.7 0 1 0 127.6 127.7A127.7 127.7 0 0 0 127.7 0zm110.4 116.5h-7.4c-3.1 0-6.2-.2-9.2-.5l-9.1-1-9.2-.9c-3-.3-6.1-.5-9.2-.5a127.4 127.4 0 0 0-16.3 1 76.7 76.7 0 0 0-15.9 3.7l-30.7 11.1a2.4 2.4 0 0 0-1.2 1.6 17.3 17.3 0 0 0-.8 2.7c-.3 1-.5 2-.7 2.9a4.7 4.7 0 0 1-.6 1.9 3.1 3.1 0 0 0 1.4 1.4l2.5 1.1 2.9 1.2a11.7 11.7 0 0 1 2.7 1.5 6.3 6.3 0 0 1 2.1 1.8 3.8 3.8 0 0 1 .8 2.5 1.6 1.6 0 0 1-.4 1.2l-1.2.9-1.7.7-1.6.8a4.3 4.3 0 0 0-1.2 1.1 2.5 2.5 0 0 0-.5 1.5 4 4 0 0 0 .8 2.6 7 7 0 0 0 1.9 1.5l2.4 1.4a7.2 7.2 0 0 1 2.2 1.7 17.5 17.5 0 0 1 2 3.5 23.2 23.2 0 0 1 1.3 3.7c.3 1.2.6 2.5.8 3.8s.1 2.7.2 4l1.3 1.3v7.2h.9l1 .2 1 .2.6.2a5.5 5.5 0 0 0 .1.9 5.1 5.1 0 0 1-.2.9 2.8 2.8 0 0 1-.3 1.3 7 7 0 0 1-.6.9 1.1 1.1 0 0 1-.9.3h-5.2c-.2 0-.6-.5-1-.8l-1.5-.8-1.6-.8c-.5-.3-.9-.9-1.2-.9h-6.1a5.2 5.2 0 0 1 .6-3 4.1 4.1 0 0 1 1.7-1.5 6.5 6.5 0 0 1 2.1-.7l2.1-.3 1.6-.6a1.4 1.4 0 0 0 .7-1.4v-.3a.4.4 0 0 0-.1-.3 11.2 11.2 0 0 0-.8-1.8c-.4-.8-.8-1.6-1.3-2.4a20.7 20.7 0 0 0-1.5-2.5 10 10 0 0 0-1.6-1.8 3.6 3.6 0 0 0-1.3-.8l-1.8-1a7.8 7.8 0 0 1-1.8-1.1 2.1 2.1 0 0 1-1-1.1c-.3-.8-.6-1.8-.9-2.9a30.1 30.1 0 0 0-1.1-3.2 6.9 6.9 0 0 0-1.7-2.6 4 4 0 0 0-2.9-1.1 24.9 24.9 0 0 0-6.1.8 28.3 28.3 0 0 0-5.7 2.3 24.5 24.5 0 0 0-5 3.4 21.7 21.7 0 0 0-4 4.6c-.1.2-.2.2-.3.2h-.2c-.1 0-.1-.1-.1-.2s-.2-.1-.2-.3l-.2-.6a1.1 1.1 0 0 0-.2-.6c0-.2-.1-.3-.1-.4h-.3a1.5 1.5 0 0 0-1.1.4l-.8 1.2-.9 1.3a2.1 2.1 0 0 1-.8 1 5.2 5.2 0 0 1-.7-1.6v-1.7a9.2 9.2 0 0 1 .4-2.9 18 18 0 0 1 .9-2.8l.9-2.5c.2-1 .4-2.8.4-2.8h-4.9c0-1.7.2-1.8.6-2.4a6.5 6.5 0 0 1 1.7-1.6 6.7 6.7 0 0 1 2.1-.9l2.1-.3a15.1 15.1 0 0 1 3 .2l3 .5 2.9.4a14.2 14.2 0 0 0 2.9.2h2.3a2.4 2.4 0 0 0-1.7-1.4l-2.5-.5-2.7-.2c-.9 0-1.6.2-2.2-.2l-3.9-2.2h-.3a17.1 17.1 0 0 0-3.2 0 10.8 10.8 0 0 1-3.1.2 7.8 7.8 0 0 1-3.1-.7l-2.6-1.4-2.6-1.4a5.5 5.5 0 0 0-2.9-.6v6.1l1.6-.2 1-.3.9-.5c.3-.2.3-.4.8-.7h.7v2.8l2-.7c0 .1.2.3.2.5a4.3 4.3 0 0 0 .1.5 5.6 5.6 0 0 1-1.3 3.9 19 19 0 0 1-3.3 2.9 29.2 29.2 0 0 0-4.6-1.3l-4.8-.6v-8l-1.7.6-2.1 1a10.5 10.5 0 0 0-1.9 1.2c-.5.4-1 .8-1 1.2v6.9a9.6 9.6 0 0 0 3-.3l1.9-.6 1.2-.6a2.4 2.4 0 0 1 1.2-.3h.4a2.6 2.6 0 0 0 .3.7c.1.4.3.8.4 1.3a6.5 6.5 0 0 1 .4 1.3 5.1 5.1 0 0 1 .2.9 4.3 4.3 0 0 1-.4 1.9 7.2 7.2 0 0 1-1.1 1.9 4.7 4.7 0 0 1-1.5 1.3 3.3 3.3 0 0 1-1.9.6h-1l-3-.4a22.1 22.1 0 0 1-3.7-.8 11.9 11.9 0 0 1-3.2-1.2 2.5 2.5 0 0 1-1.5-2.1v-11.8c0-.2.4-.4.9-.9a20.2 20.2 0 0 0 1.9-1.6l2.4-2.2a18.8 18.8 0 0 0 2.4-2.5 21.1 21.1 0 0 0 1.8-2.7 5.1 5.1 0 0 0 .7-2.6 4.3 4.3 0 0 0-1.1-2.8 16.4 16.4 0 0 0-2.9-2 18.3 18.3 0 0 0-3.2-1.4l-2.6-.9-1.3-9.2a16.8 16.8 0 0 0-.6-2.7 10.9 10.9 0 0 0-1.1-2.7 7.9 7.9 0 0 0-1.8-2.2 4 4 0 0 0-2.7-.9 12.5 12.5 0 0 0-3.6.5 13 13 0 0 0-3.2 1.5l-1.7 1-2.5 1.5-3 1.8-3 1.7-2.5 1.7c-.8.4-1.4 1.1-1.7 1.1h-1l-1.7-.2-2.1-.4a3.1 3.1 0 0 1-1.4-.7c-.5-.4-.4-.9-.4-1.4v-1.9c0-.6-.2-.9.1-.9h1.6a.8.8 0 0 1 0-.5c0-.2.1-.5.1-.8s.1-.6.2-.9a.4.4 0 0 0 0-.5l-.8-.8-.9-.5-.7-.7a1.7 1.7 0 0 1-.3-1.2 2.7 2.7 0 0 1 .3-1.2 7.5 7.5 0 0 1 .7-1.2c.3-.3.2-.6.6-.8a1.8 1.8 0 0 1 .8-.4v.8a4.7 4.7 0 0 0 .6 1.5c.1.5.7.7 1.2.7a1.4 1.4 0 0 0 1.1-.5 4.8 4.8 0 0 0 .9-1.1 11.1 11.1 0 0 0 .7-1.6c.1-.5.2.2.2-1.4H20.8a1.4 1.4 0 0 1-.9-.5l-1-.7-1-.8a1.8 1.8 0 0 1-.4-1 4.6 4.6 0 0 1 1.1-3.2 6.8 6.8 0 0 1 2.6-1.8 17 17 0 0 1 3.2-1l2.9-.9 2.2-.9 3.4-1.5 3.3-1.6a8.4 8.4 0 0 1 2.2-1.1h13.7a7.6 7.6 0 0 1 3.9 1 12.6 12.6 0 0 1 3.1 2.5 29.1 29.1 0 0 1 2.6 3.3 40.5 40.5 0 0 0 2.3 3.4 18.6 18.6 0 0 0 2.2 2.5 3.6 3.6 0 0 0 2.5 1c.4 0 .7-.1.8-.4a1.3 1.3 0 0 1 .9-.4 4 4 0 0 1 1.5.3l1.5.8 1.6.7a4 4 0 0 0 1.5.3l4.1-.2 4.2-.5 4.1-.5 4.1-.2a56.4 56.4 0 0 1 7.3.4 39.9 39.9 0 0 1 7.3 1.6 53.8 53.8 0 0 1 5.1 2l5.1 2.2a35 35 0 0 0 5.2 1.7 20.2 20.2 0 0 0 5.5.7h2.6L144 111c4.3-.9 8.6-1.6 12.9-2.3s8.6-1.2 13-1.6 8.7-.5 13.1-.5h8.9c1.9.1 3.6.7 5.1.9l36.6 7.3h11.7c-.8 0-1.8 1-3.1 1.4a28.2 28.2 0 0 1-4.1.3z"/></symbol><symbol id="micropachycephalosaurus" viewBox="0 0 256 256"><path d="M132.4 151.1c-.3 0-.4.2-.4.6h-.1a.5.5 0 0 0-.5.5c0 .4.2.6.5.6s.4-.2.4-.6h.1a.5.5 0 0 0 .5-.5c0-.4-.2-.6-.5-.6zm1.5-.8a2.4 2.4 0 0 0-.9.8h.3a2.3 2.3 0 0 0 1.1-.3 2.4 2.4 0 0 0 .9-.8h-.3a2 2 0 0 0-1.1.3zm3-2.6c-.3 0-.4.2-.4.6h-.1a.5.5 0 0 0-.5.5h-.1c-.3 0-.5.2-.5.6s.2.6.5.6.5-.2.5-.6h.1c.3 0 .4-.2.4-.6h.1c.4 0 .5-.1.5-.5s-.1-.6-.5-.6zm23.4-5.9l-1.3 1.4a1.4 1.4 0 0 0 .8 1 2.2 2.2 0 0 0 1.2.2 2.3 2.3 0 0 0 1.4-.4 6.4 6.4 0 0 0 1-1.3 7.1 7.1 0 0 0 .8-1.5c.2-.5.4-1.1.5-1.1h-3.4c-.2 0-.5 1-1 1.7z"/><path d="M127.8 0a127.9 127.9 0 1 0 127.9 127.8A127.8 127.8 0 0 0 127.8 0zm95.9 75.8a4.2 4.2 0 0 1-1.6.4h-3.7l-5.2 1.2a18.6 18.6 0 0 0-3.7 1.6 13.6 13.6 0 0 0-2.5 2.2 12.6 12.6 0 0 0-1.8 3 40.4 40.4 0 0 0-1.5 3.9l-1.6 5.1-1.2 3.4c-.4 1.1-.9 2.2-1.3 3.2a23 23 0 0 1-1.5 3.2l-1.7 3.2a32.3 32.3 0 0 1-2.7 4.1c-1 1.3-1.9 2.5-3 3.7l-3.1 3.6a40.8 40.8 0 0 0-3.1 3.9 7.3 7.3 0 0 0-1.4 2.6 20 20 0 0 1-1 2.6 8 8 0 0 1-1.3 2.2 5.7 5.7 0 0 1-2.5 1.6l-1.4.6-2 .7-2.1.6-1.3.4a2.8 2.8 0 0 1 .1 2 2.7 2.7 0 0 1-.8 1l-1.3.6a2 2 0 0 0-.9.9l-2.2 6.8a2.7 2.7 0 0 1-1.1 1.5 5.1 5.1 0 0 1-1.8.9 12.3 12.3 0 0 1-2 .2l-1.8-.2h-.9c-.5 0-.9.2-1.1.1s-.4-.4-.4-.9a.4.4 0 0 1 .1-.3c0-.2.1-.2.2-.3l.2-.3c.1-.1.1-.2.1-.4v-.2a15.4 15.4 0 0 0-3.4 1.7 37.9 37.9 0 0 0-3.4 2l-3.4 2.2a23.3 23.3 0 0 1-3.4 2l-.8.5-1.2.5-1 .8a1.5 1.5 0 0 0-.4 1.1v.5l1.8 1.7 2 1.7a15.6 15.6 0 0 0 2 1.6l2.1 1.3 1.9.7 1.9.5 1.9.6a9.5 9.5 0 0 1 1.7 1 5.7 5.7 0 0 1 1.3 1.4l1.2 1.5 1.1 1.5a6.1 6.1 0 0 0 1.5 1.2 3.4 3.4 0 0 0 1.7.6l2 .7a5.2 5.2 0 0 1 1.8 1 1.9 1.9 0 0 1 .8 1.7.4.4 0 0 1-.1.3v.2l-5.7 1.2-1.1.4-1.1.2h-.6l-1.1-.6-1.8-1.1-1.7-1-1-.7-.2-.2-.3-.5-.4-.6-.2-.4-2.3-4.6-1.2-.4-1.8-.8-2.1-.9-2.2-1-1.8-.8-1.1-.6a27.9 27.9 0 0 1-2.8-1.6 13.3 13.3 0 0 1-2.6-2.1 24.7 24.7 0 0 1-2.1-2.7 9.2 9.2 0 0 1-1-3.2l-.6.2-.6.4-.8.6-1.8 1.2-2.1 1.4-2.1 1.4-1.8 1.1-.9.5-6.1 3.6a22.2 22.2 0 0 0-4.5 3.4 16.5 16.5 0 0 0-3.7 4.5c-.9 1.7-.7 3.9-2.4 6.6v1.6a10.5 10.5 0 0 0 1.2 4.5 9.2 9.2 0 0 0 2.1 2.6 8.7 8.7 0 0 0 2.7 1.4l2.6 1a5.6 5.6 0 0 1 1.9.9 4.6 4.6 0 0 1 .8 2.1h-13.4s0-.3-.1-.4a.4.4 0 0 0-.4-.2l-.5-.2-.6-.3a3.4 3.4 0 0 1-1.3-1.6 12.9 12.9 0 0 1-.5-2.1c0-.8.2-1.6.2-2.4a21.1 21.1 0 0 0 .3-2.1V181a8.2 8.2 0 0 1 .3-1.8c.2-.8.3-1.7.6-2.7s.5-2.1.8-3.2.5-2.1.8-3.1.4-1.9.6-2.7l.5-1.8c.2-.8.4-1.4.6-2l1-1.9a16.1 16.1 0 0 0 4.5-2.6 17.2 17.2 0 0 0 3.3-3.3c1-1.2 2-2.3 2.9-3.5a17.6 17.6 0 0 1 3.5-3.1l1.4-.7 2.1-.8 2.3-1 2.2-1.1 1.6-1.3a2.5 2.5 0 0 0 .6-1.6v-1.3a1.7 1.7 0 0 0-.6-1.2l-.8-.3-1.2-.6-1.2-.5-.8-.4a9.4 9.4 0 0 1-2-1.2l-2.7-1.9-2.5-1.5a3.4 3.4 0 0 0-1.8-.6H107c-6 0-12-.1-17.8.1s-11.7.2-17.8.2c-4.4 0-8.7-.2-12.9-.4s-8.4-.7-12.5-1.3a85.5 85.5 0 0 1-12.1-3 75.1 75.1 0 0 1-11.8-5.1l-1.4-.7-1.6-1a4 4 0 0 1-1.3-1.3 2.5 2.5 0 0 1-.6-1.6 5.9 5.9 0 0 1 2.1.4l2.5.9 2.2 1 1.5.7 4.7 1.6a41.3 41.3 0 0 0 5 1.5l5.2 1 4.9.3H72l2.6-.3 3.3-.6 3.7-.6 3.4-.6 2.7-.6 7-1.3 7.4-1.6 7.3-2.2a43.6 43.6 0 0 0 6.6-2.8l3.9-1.8 3.8-1.6 4-1.3a25.9 25.9 0 0 1 4.2-.9l1-.2h3.6l1-.2 1.9-.3 3.4-.8 4.1-.9 4.1-.9c1.2-.3 2.3-.9 3.3-1.1s1.6-.8 1.9-.8h6.6a69.9 69.9 0 0 1 8 .8c2.5.2 5.2.5 7.8.5a10.2 10.2 0 0 0 5.1-1.3 18.7 18.7 0 0 0 4.6-3.5 33.3 33.3 0 0 0 3.9-5 54.5 54.5 0 0 0 3.2-5.7 55.3 55.3 0 0 0 2.6-5.6l1.8-4.8c.4-1.2.8-2.4 1.1-3.5l1-3.2 1.2-2.6a7 7 0 0 1 1.8-2 7.2 7.2 0 0 1 2.7-1.6 12.7 12.7 0 0 1 3.8-.8h3.1c.7 1.7 1.7.9 3 1.3a36.8 36.8 0 0 1 3.5 1.5 14.1 14.1 0 0 1 3 1.9 2.6 2.6 0 0 1 1.3 2.2 2 2 0 0 1-.5 1.4 3.1 3.1 0 0 1-1.1.6z"/></symbol><symbol id="brachiosaurus" viewBox="0 0 256 256"><path d="M58.4 166.9a37.9 37.9 0 0 0-7.7.8v.2c0 .3.2.6.8 1l2 1 2.6 1 2.8.8 2.4.6 1.5.3H65a11.1 11.1 0 0 0 2.5-.5l2.4-.8a5 5 0 0 0 1.7-1.5 30.3 30.3 0 0 0-6.4-2.2 30.8 30.8 0 0 0-6.8-.7z"/><path d="M127.7 0a127.7 127.7 0 1 0 127.7 127.7A127.7 127.7 0 0 0 127.7 0zm83.2 70.4v.4a3.7 3.7 0 0 1-.1 1.4q-.2.9-.3 2.1l-.3 2.1c-.2.6-.2 1.1-.3 1.3l-.9 1.8-.6 2-.6 2c-.2.7-.5 1.4-.7 2l-1.7 3.1a14.3 14.3 0 0 0-1.6 3l-20.1 27.9c-.1.2-.1.4-.2.5l-.3.3-.3.3-.4.5-1.7 2.2-2 2.9c-.8 1.1-1.5 2.2-2.2 3.3a29 29 0 0 0-2 3.3 13.5 13.5 0 0 0-1.4 3 5.6 5.6 0 0 0-.5 2.3c0 .3-.3.5-.3.7a1.4 1.4 0 0 1 .2.7.5.5 0 0 0-.2.4c0 .3.1.4.2.4v10.2a3.6 3.6 0 0 1-.2 1c-.2.4-.2.8-.4 1.2s-.5.8-.6 1.2a5.6 5.6 0 0 0-.4 1.2v1.6a.5.5 0 0 1-.1.5 2.5 2.5 0 0 1-.4.7c-.1.3-.5.6-.7.8s-.5.4-.5.5v.4s.7.2.8.4.9.3.9.4v2.8c0 1.2-.5 2.4-.6 3.6s-.6 2.3-.8 3.5-.5 2.3-.7 3.5a21.9 21.9 0 0 0-.3 3.6q0 3.2.3 6.3a44.8 44.8 0 0 0 1.1 6.2 27.8 27.8 0 0 0 2.1 5.7 25.1 25.1 0 0 0 3.4 5.3l-1.2.8-1.7.7-1.7.5h-2l-1-.2-1.2-.3-1-.2h-.7l-.8-.3-.6-.5a.9.9 0 0 1-.3-.7c.1-1.3.1-2.7.1-4.1l-.3-4.3c-.1-1.4-.3-2.8-.5-4.3s-.4-2.8-.5-4.1a.8.8 0 0 1-.2-.6l-.3-.6c.1-1.1.1-2.3.1-3.7a27.1 27.1 0 0 0-.1-4 25.7 25.7 0 0 0-.6-4 11.6 11.6 0 0 0-1.4-3.4 3.1 3.1 0 0 0-1.5 1.8 17.6 17.6 0 0 0-.7 2.7c-.3 1-.2 1.9-.5 2.9s-.9 1.8-.9 2.4v7.5c0 2.9-.2 5.7-.1 8.4a77.2 77.2 0 0 0 .6 8.2c0 .1.1.2.4.3l.8.6.8.7a1.3 1.3 0 0 1 .3.7c0 .2-.2.5-.8.8a7.5 7.5 0 0 1-1.8.8 18.9 18.9 0 0 1-2.1.9l-1.3.4h-.1l-4.8-2.6a.4.4 0 0 1-.2-.5v-.6a29.9 29.9 0 0 1 0-3 28.1 28.1 0 0 0 .1-3 23.4 23.4 0 0 0-.3-3.8l-.6-3.8-.6-3.7a26 26 0 0 1-.3-4 32.5 32.5 0 0 1 .2-3.3 26.6 26.6 0 0 1 .3-2.8 23.3 23.3 0 0 0 .5-2.8c.2-1 .5-2 .7-3.2s0-.4 0-.7a4.5 4.5 0 0 1-.2-.8l-1.8.3-1.9.5-1.9.6-2 .5-1.3.2h-1.1c-.3.1-.7-.1-1-.1h-2.9a46.4 46.4 0 0 1-5.3-.1 44.7 44.7 0 0 0-5.2-.1h-2.5a4 4 0 0 0-2.3.8v5.2c-.1 1.8-.1 3.5-.2 5.2l-.3 5.1c0 1.7-.1 3.4-.1 5.2v5.1c0 .6.7 1.1 1.1 1.7a20.9 20.9 0 0 1 1.4 1.7 9.4 9.4 0 0 1 1.2 1.8 3.2 3.2 0 0 1 .6 1.8v.4a11 11 0 0 1-4.1.4c.1.4.1.7-.2.8H115a8.5 8.5 0 0 1-2.3-.3 3.7 3.7 0 0 1-1.8-.8 2.4 2.4 0 0 1-.8-1.9 6.9 6.9 0 0 1 .2-1.3l.3-1.3.3-1.3a6.1 6.1 0 0 0 .1-1.4c0-1.3-.1-2.6-.2-3.8s-.5-2.5-.7-3.7-.6-2.6-.8-3.8a28.1 28.1 0 0 1-.8-4h-.5c-.2 0-.4.8-.5.9l-.4.7-.3.6c-.5.7-1 1.5-1.6 2.2l-1.5 2.3a18.6 18.6 0 0 0-1 2.5 7.6 7.6 0 0 0-.5 2.7 3.2 3.2 0 0 0 .4 1.6 6.9 6.9 0 0 0 .7 1.5l.7 1.2c.3.3.4.5.4.6s-.2.5-.5.7l-1 .5-1.3.2h-4.3a2.3 2.3 0 0 1-1.1-.4 2.2 2.2 0 0 1-.7-.9 9.1 9.1 0 0 1-.6-1.6 9.8 9.8 0 0 0-.5-1.6 4.7 4.7 0 0 1-.3-1.7 5.6 5.6 0 0 1 .4-1.5l1-1.6 1.1-1.6.8-1.4 2.4-5.9 2.5-6 .5-.7.5-.7a3 3 0 0 0 .4-.8 1.1 1.1 0 0 0 .2-.8q0-.6-.3-.6h-1.3l-9 2.4a2.2 2.2 0 0 1-1.3.5l-1.8.4-1.6.6a1.2 1.2 0 0 0-.7 1.1 1.2 1.2 0 0 0 .3.9l.6.6.9.6.7.6-.4.4-1.3-.8-1.4-.8a4.7 4.7 0 0 0-1.5-.6 4 4 0 0 0-1.5-.3 16.5 16.5 0 0 0-3.8.5c-1.3.4-2.7.7-4 1.2l-4.1 1.1a15.4 15.4 0 0 1-4.3.5 17.7 17.7 0 0 1-3.4-.4 38.2 38.2 0 0 1-5-1.1l-5.4-1.7a46.7 46.7 0 0 1-5-2.3 13.6 13.6 0 0 1-3.7-2.7 4.3 4.3 0 0 1-1.5-3 4.5 4.5 0 0 1 1.2-3.3 6.1 6.1 0 0 1 2.7-1.6c1.1-.4 2.3-.1 3.5-.2s2.4.4 3.4.4h4c.2 0 .6-.4 1.3-.3a19.5 19.5 0 0 1 2.3.2 20.6 20.6 0 0 1 2.6.3l2 .2a6 6 0 0 1 1.9.6l1.8.8 1.9.8a6.4 6.4 0 0 0 2 .3 9.1 9.1 0 0 0 4-1 46.5 46.5 0 0 0 4.1-2.6c1.4-1 2.7-2.1 3.9-3.1l3.3-2.8 1.9-1.2 1.8-1.1 1.8-1.3A8.6 8.6 0 0 0 97 153a33 33 0 0 0 2.6-4.5 33.5 33.5 0 0 1 2.7-4.5l1.3-1.3 1.6-1 1.6-.9a8.3 8.3 0 0 0 1.6-.9c1.3-.8 2.5-1.7 3.7-2.6l3.4-3 3.4-3 3.5-2.9a19.9 19.9 0 0 1 3.8-2.2l3.9-1.8 2.5-1.3 2.5-1.3a12.3 12.3 0 0 1 2.6-1.2 11.1 11.1 0 0 1 2.6-.7l22.5-3.3a12.4 12.4 0 0 0 3.6-1.1 23.7 23.7 0 0 0 3.3-2.2l3.2-2.9c1.1-1.1 2-2.2 3-3.3l2.6-3.2 2.4-2.9 7.7-9 .4-.2.5-.6.5-.5.3-.3 2-3.3h.3l.4-.3.4-.2c.1-.1.1-.2.2-.2l.4-.4.4-.4 1.2-1.7 1.4-2 1.3-2 1-1.7a11.9 11.9 0 0 0 .8-2 14.2 14.2 0 0 0 .7-2.2c.2-.7.5-1.4.8-2.2s1-1.4 1-2.2v-6.2a5.3 5.3 0 0 0-1.1-3.1 10.7 10.7 0 0 0-2.6-2.6 12.4 12.4 0 0 0-3.4-1.8 8.4 8.4 0 0 0-3.2-.7 22.7 22.7 0 0 0-5.9.7 12.4 12.4 0 0 0-5.1 2.6l-1.5 1.4c-.5.6-1 1.3-1.6 1.9l-1.7 2-1.9 1.9a10.2 10.2 0 0 1-1.8 1.3 4.1 4.1 0 0 1-1.8.5 1.7 1.7 0 0 1-1.2-.5 1.6 1.6 0 0 1-.5-1.1v-.4a4.3 4.3 0 0 0 .1-.5c.1-.3.1-.5.2-.8s.1-.5.1-.8a1 1 0 0 0 .1-.4 7.9 7.9 0 0 0-.2-1.7l-.6-1.4a3.4 3.4 0 0 1-.6-1.2 2.7 2.7 0 0 1-.3-1.2 1.2 1.2 0 0 0 .9-.3l.4-.6c.1-.3.3-.5.4-.8l.8-.6h2.9a1.1 1.1 0 0 0 .9-.4c.2-.3.5-.4.8-.7h.3l.3.3c.1.2.1.4.2.5a.4.4 0 0 1 .4-.4l.6-.4 1.1-.6 1.4-.8 1.3-.8 1.1-.7.6-.4 2.1-1.3a6.4 6.4 0 0 1 1.8-.6l1.9-.2h6.5a4.7 4.7 0 0 0 1.5.6l1.5.3 1.6.3 1.5.5a17.1 17.1 0 0 1 9.6 12.3 25.5 25.5 0 0 1 .4 5.5v.7c0 .3.1.6 0 .8z"/></symbol></svg>